<svg xmlns="http://www.w3.org/2000/svg" viewBox="0 0 400 225" width="400" height="225">
  <defs><linearGradient id="b0" x1="0%" y1="0%" x2="100%" y2="100%"><stop offset="0%" style="stop-color:#1e3a8a"/><stop offset="100%" style="stop-color:#3b82f6"/></linearGradient></defs>
  <rect width="400" height="225" fill="url(#b0)" rx="12"/>
  <circle cx="320" cy="60" r="100" fill="white" opacity="0.05"/>
  <circle cx="80" cy="180" r="60" fill="white" opacity="0.05"/>
  <circle cx="350" cy="190" r="40" fill="white" opacity="0.08"/>
  <g transform="translate(160,55)"><path d="M19 7l-.867 12.142A2 2 0 0116.138 21H7.862a2 2 0 01-1.995-1.858L5 7m5 4v6m4-6v6m1-10V4a1 1 0 00-1-1h-4a1 1 0 00-1 1v3M4 7h16" stroke="#93c5fd" stroke-width="2" stroke-linecap="round" stroke-linejoin="round" fill="none"/></g>
  <text x="200" y="150" font-family="system-ui,sans-serif" font-size="15" font-weight="600" fill="white" text-anchor="middle" opacity="0.95">TelegramClean</text>
  <text x="200" y="175" font-family="system-ui,sans-serif" font-size="12" fill="white" text-anchor="middle" opacity="0.7">自动删消息设置</text>
</svg>